<svg height="152" version="1.1" width="152" xmlns="http://www.w3.org/2000/svg" xmlns:xlink="http://www.w3.org/1999/xlink" style="overflow: hidden; position: relative; left: -0.5px;" viewBox="0 0 320 320" preserveAspectRatio="xMidYMid meet" id="main_svg"><svg height="320" version="1.1" width="320" xmlns="http://www.w3.org/2000/svg" xmlns:xlink="http://www.w3.org/1999/xlink" style="overflow: hidden; position: relative;" viewBox="0 0 160 160" preserveAspectRatio="xMidYMid meet" id="imported_svg_layer_1"><path fill="#d7ccc8" stroke="none" d="M80,0L160,40V120L80,160L0,120V40L80,0" stroke-width="0" transform="matrix(1,0,0,1,0,0)" style="-webkit-tap-highlight-color: rgba(0, 0, 0, 0); display: none;"></path><desc style="-webkit-tap-highlight-color: rgba(0, 0, 0, 0);">Created with Logotizer</desc><defs style="-webkit-tap-highlight-color: rgba(0, 0, 0, 0);"></defs></svg><svg height="320" version="1.1" width="320" xmlns="http://www.w3.org/2000/svg" xmlns:xlink="http://www.w3.org/1999/xlink" style="overflow: hidden; position: relative;" viewBox="0 0 160 160" preserveAspectRatio="xMidYMid meet" id="imported_svg_layer_2"><desc style="-webkit-tap-highlight-color: rgba(0, 0, 0, 0);">Created with Logotizer</desc><defs style="-webkit-tap-highlight-color: rgba(0, 0, 0, 0);"><linearGradient id="gradient_syecelpdg48s1nu6x57ua" x1="1.8369701987210297e-16" y1="0" x2="0" y2="1" style="-webkit-tap-highlight-color: rgba(0, 0, 0, 0);"><stop offset="0%" stop-color="#cb0f31" stop-opacity="1" style="-webkit-tap-highlight-color: rgba(0, 0, 0, 0);"></stop><stop offset="100%" stop-color="#2d1aa6" stop-opacity="1" style="-webkit-tap-highlight-color: rgba(0, 0, 0, 0);"></stop></linearGradient></defs><path fill="url(#gradient_syecelpdg48s1nu6x57ua)" stroke="#8e1a09" d="M150,70V60H140V31C140,30.4,139.6,30,139,30H111C110.4,30,110,30.5,110,31V70H50V31C50,30.4,49.6,30,49,30H21C20.4,30,20,30.5,20,31V60H10V70C4.5,70,0,74.5,0,80S4.5,90,10,90V100H20V129C20,129.6,20.4,130,21,130H49C49.6,130,50,129.5,50,129V90H110V129C110,129.6,110.4,130,111,130H139C139.6,130,140,129.5,140,129V100H150V90C155.5,90,160,85.5,160,80S155.5,70,150,70Z" stroke-width="2" transform="matrix(1,0,0,1,0,0)" style="-webkit-tap-highlight-color: rgba(0, 0, 0, 0); cursor: move; opacity: 1; fill-opacity: 1;" opacity="1" fill-opacity="1"></path></svg><desc style="-webkit-tap-highlight-color: rgba(0, 0, 0, 0);">Created with Logotizer</desc><defs style="-webkit-tap-highlight-color: rgba(0, 0, 0, 0);"></defs><text x="0" y="0" text-anchor="middle" font-family="exo2" font-size="220px" stroke="none" fill="#62dec9" style="-webkit-tap-highlight-color: rgba(0, 0, 0, 0); text-anchor: middle; font-family: exo2; font-size: 220px; cursor: move; opacity: 1; display: none;" transform="matrix(1,0,0,1,160,235.8936)" opacity="1"><tspan dy="0" style="-webkit-tap-highlight-color: rgba(0, 0, 0, 0);">L</tspan></text></svg>
