<svg viewBox="0 0 14 14" xmlns="http://www.w3.org/2000/svg">
<path d="M8.29535 0C7.84997 0 7.43204 0.225932 7.16397 0.55175C6.8959 0.877568 6.74814 1.27473 6.64049 1.6933C6.46952 2.36634 6.41675 3.11311 6.40408 3.78615C5.15239 3.86939 4.0189 4.24039 3.07749 4.81355C2.69544 4.49248 2.23529 4.31412 1.79414 4.31887C1.29177 4.32363 0.814734 4.54005 0.460122 4.98478C-0.217439 5.83381 -0.13934 7.2227 0.645871 8.04795C0.597323 8.30242 0.56144 8.56402 0.56144 8.82801C0.56144 11.6248 3.41944 13.8889 6.94444 13.8889C10.4695 13.8889 13.3274 11.6224 13.3274 8.82801C13.3274 8.56402 13.2916 8.30242 13.243 8.04795C14.0282 7.2227 14.1063 5.83381 13.4288 4.98478C13.0742 4.54005 12.5971 4.32363 12.0948 4.31887C11.6536 4.31412 11.1934 4.49248 10.8114 4.81355C9.87421 4.24277 8.74705 3.87177 7.50169 3.78615C7.51858 3.16543 7.5629 2.52093 7.68744 2.03577C7.76554 1.73135 7.85841 1.51018 7.95762 1.38889C8.05683 1.2676 8.12859 1.21766 8.29535 1.21766C8.65629 1.21766 8.70273 1.33419 8.92014 1.6172C9.0299 1.75989 9.15654 1.93826 9.35918 2.11187C9.56182 2.28548 9.86155 2.43531 10.1866 2.43531V1.21766C10.0958 1.21766 10.079 1.21528 10.0177 1.16058C9.95653 1.10588 9.8721 0.979833 9.74756 0.818113C9.49849 0.492295 9.01512 0 8.29535 0ZM11.8077 0.114155C10.9676 0.114155 10.2879 0.879947 10.2879 1.82648C10.2879 2.77302 10.9676 3.53881 11.8077 3.53881C12.6478 3.53881 13.3274 2.77302 13.3274 1.82648C13.3274 0.879947 12.6478 0.114155 11.8077 0.114155ZM11.8077 0.722983C12.348 0.722983 12.7871 1.21766 12.7871 1.82648C12.7871 2.43531 12.348 2.92998 11.8077 2.92998C11.2673 2.92998 10.8283 2.43531 10.8283 1.82648C10.8283 1.21766 11.2673 0.722983 11.8077 0.722983ZM6.94444 4.73744C9.93542 4.73744 12.4663 6.61387 12.4663 8.82801C12.4663 11.0445 9.93542 12.9186 6.94444 12.9186C3.95347 12.9186 1.42264 11.0445 1.42264 8.82801C1.42264 6.61387 3.95347 4.73744 6.94444 4.73744ZM1.81102 5.28919C1.96089 5.29157 2.11709 5.32962 2.26695 5.40335C1.72448 5.8671 1.29388 6.39983 1.00048 7.00152C0.797847 6.53063 0.852728 5.94321 1.1018 5.63166C1.28333 5.40335 1.53451 5.28682 1.81102 5.28919ZM12.0779 5.28919C12.3544 5.28682 12.6056 5.40335 12.7871 5.63166C13.0362 5.94321 13.091 6.53063 12.8884 7.00152C12.595 6.39983 12.1644 5.8671 11.6219 5.40335C11.7718 5.32962 11.928 5.29157 12.0779 5.28919ZM4.783 6.81126C4.24264 6.81126 3.8036 7.30594 3.8036 7.91476C3.8036 8.52359 4.24264 9.01826 4.783 9.01826C5.32336 9.01826 5.76241 8.52359 5.76241 7.91476C5.76241 7.30594 5.32336 6.81126 4.783 6.81126ZM9.10589 6.81126C8.56553 6.81126 8.12648 7.30594 8.12648 7.91476C8.12648 8.52359 8.56553 9.01826 9.10589 9.01826C9.64625 9.01826 10.0853 8.52359 10.0853 7.91476C10.0853 7.30594 9.64625 6.81126 9.10589 6.81126ZM4.25953 10.5594C4.60359 11.3608 5.66742 12.1385 6.94444 12.1385C8.22147 12.1385 9.30219 11.3608 9.64625 10.5594C9.02145 11.0136 8.03572 11.3204 6.94444 11.3204C5.85317 11.3204 4.88432 11.0136 4.25953 10.5594Z" />
</svg>
