<svg viewBox="0 0 9 16" xmlns="http://www.w3.org/2000/svg">
<path d="M4.41464 2.38024C5.31313 2.38024 6.04383 3.13455 6.04383 4.06206C6.04383 4.98678 5.31313 5.74108 4.41464 5.74108C3.51614 5.74108 2.78544 4.98678 2.78544 4.06206C2.78544 3.13455 3.51614 2.38024 4.41464 2.38024ZM4.41464 8.12133C6.5851 8.12133 8.34961 6.29983 8.34961 4.06206C8.34961 1.8215 6.5851 0 4.41464 0C2.24418 0 0.482373 1.8215 0.482373 4.06206C0.482373 6.29983 2.24418 8.12133 4.41464 8.12133ZM6.00595 11.4347C6.80701 11.2447 7.57831 10.9178 8.29007 10.4569C8.82862 10.1077 8.991 9.37291 8.65271 8.81696C8.31172 8.25822 7.60267 8.0906 7.06141 8.4426C5.45115 9.48745 3.37812 9.48745 1.76516 8.4426C1.22661 8.0906 0.514849 8.25822 0.176561 8.81696C-0.161728 9.37291 0.000650437 10.1077 0.539206 10.4569C1.25096 10.9178 2.02226 11.2447 2.82333 11.4347L0.623101 13.7032C0.173854 14.1669 0.173854 14.9212 0.623101 15.385C0.850431 15.6169 1.14271 15.7342 1.4377 15.7342C1.73269 15.7342 2.02768 15.6169 2.25501 15.385L4.41464 13.1556L6.57698 15.385C7.02622 15.8515 7.75422 15.8515 8.20617 15.385C8.65542 14.9212 8.65542 14.1669 8.20617 13.7032L6.00595 11.4347Z" />
</svg>
